<svg width="156" height="284" viewBox="0 0 156 284" fill="none" xmlns="http://www.w3.org/2000/svg">
<path d="M0.609232 2.57299C-0.294014 3.61726 -0.179686 5.19604 0.86459 6.09929C1.90886 7.00254 3.48764 6.88821 4.39089 5.84393L2.50006 4.20846L0.609232 2.57299ZM129.11 281.44C129.514 282.76 130.912 283.503 132.232 283.098L153.746 276.509C155.066 276.105 155.808 274.707 155.404 273.386C155 272.066 153.602 271.324 152.281 271.728L133.158 277.585L127.301 258.462C126.897 257.142 125.499 256.4 124.179 256.804C122.858 257.208 122.116 258.606 122.52 259.927L129.11 281.44ZM2.50006 4.20846L4.39089 5.84393C4.68093 5.5086 5.4351 5.03864 7.25421 4.99903L7.19978 2.49962L7.14536 0.000215231C4.66889 0.054147 2.22429 0.705759 0.609232 2.57299L2.50006 4.20846ZM17.2042 4.53146L16.3841 6.89313C19.1305 7.84681 22.2152 9.15452 25.5793 10.8097L26.683 8.56651L27.7866 6.32333C24.2796 4.59781 21.0034 3.20426 18.0243 2.1698L17.2042 4.53146ZM35.7237 13.4648L34.457 15.6202C37.2133 17.24 40.0819 19.0351 43.0382 20.9994L44.4218 18.9172L45.8054 16.835C42.7773 14.8229 39.8307 12.9787 36.9903 11.3095L35.7237 13.4648ZM52.8575 24.8142L51.3794 26.8305C54.0359 28.7779 56.7389 30.8448 59.4727 33.0271L61.0324 31.0733L62.5921 29.1195C59.8056 26.8951 57.0482 24.7865 54.3356 22.798L52.8575 24.8142ZM68.9527 37.6499L67.3195 39.5427C69.8441 41.7212 72.3815 43.9913 74.92 46.3499L76.6217 44.5185L78.3234 42.687C75.7398 40.2865 73.1567 37.9755 70.5859 35.7572L68.9527 37.6499ZM84.0374 51.6631L82.2706 53.4318C84.6474 55.8058 87.0148 58.2549 89.3632 60.7766L91.1927 59.0728L93.0222 57.369C90.632 54.8025 88.2228 52.3101 85.8041 49.8943L84.0374 51.6631ZM98.0759 66.7398L96.1853 68.3754C98.3905 70.9245 100.57 73.5375 102.714 76.2121L104.664 74.6484L106.615 73.0847C104.431 70.3602 102.212 67.6992 99.9666 65.1041L98.0759 66.7398ZM110.937 82.788L108.928 84.2753C110.936 86.9887 112.903 89.7579 114.822 92.5808L116.89 91.1753L118.957 89.7699C117 86.8902 114.993 84.0664 112.946 81.3007L110.937 82.788ZM122.497 99.8046L120.373 101.122C122.155 103.997 123.884 106.921 125.55 109.892L127.731 108.669L129.911 107.446C128.208 104.409 126.442 101.422 124.622 98.487L122.497 99.8046ZM132.561 117.762L130.326 118.883C131.841 121.903 133.289 124.966 134.663 128.071L136.95 127.06L139.236 126.048C137.828 122.867 136.346 119.73 134.796 116.641L132.561 117.762ZM140.872 136.566L138.538 137.46C139.745 140.613 140.873 143.805 141.916 147.035L144.295 146.267L146.674 145.499C145.603 142.182 144.445 138.906 143.207 135.672L140.872 136.566ZM147.183 156.145L144.765 156.779C145.62 160.04 146.384 163.336 147.053 166.665L149.504 166.173L151.955 165.681C151.267 162.255 150.48 158.864 149.602 155.511L147.183 156.145ZM151.224 176.302L148.747 176.646C149.209 179.971 149.572 183.327 149.83 186.712L152.323 186.521L154.816 186.331C154.549 182.842 154.175 179.384 153.7 175.958L151.224 176.302ZM152.782 196.803L150.282 196.835C150.326 200.192 150.264 203.574 150.091 206.981L152.588 207.108L155.085 207.235C155.263 203.721 155.327 200.232 155.282 196.77L152.782 196.803ZM151.743 217.326L149.26 217.041C148.88 220.356 148.392 223.693 147.792 227.05L150.252 227.49L152.713 227.931C153.332 224.47 153.835 221.029 154.227 217.611L151.743 217.326ZM148.121 237.59L145.692 236.999C144.905 240.23 144.012 243.48 143.007 246.746L145.396 247.481L147.786 248.216C148.82 244.855 149.74 241.51 150.55 238.181L148.121 237.59ZM142.1 257.191L139.756 256.321C138.589 259.463 137.316 262.62 135.935 265.789L138.226 266.788L140.518 267.787C141.936 264.534 143.243 261.292 144.443 258.062L142.1 257.191ZM133.898 276.052L131.661 274.936C130.897 276.466 130.108 277.999 129.292 279.535L131.5 280.708L133.708 281.881C134.543 280.307 135.352 278.737 136.135 277.168L133.898 276.052ZM0.609232 2.57299C-0.294014 3.61726 -0.179686 5.19604 0.86459 6.09929C1.90886 7.00254 3.48764 6.88821 4.39089 5.84393L2.50006 4.20846L0.609232 2.57299ZM129.11 281.44C129.514 282.76 130.912 283.503 132.232 283.098L153.746 276.509C155.066 276.105 155.808 274.707 155.404 273.386C155 272.066 153.602 271.324 152.281 271.728L133.158 277.585L127.301 258.462C126.897 257.142 125.499 256.4 124.179 256.804C122.858 257.208 122.116 258.606 122.52 259.927L129.11 281.44ZM2.50006 4.20846L4.39089 5.84393C4.68093 5.5086 5.4351 5.03864 7.25421 4.99903L7.19978 2.49962L7.14536 0.000215231C4.66889 0.054147 2.22429 0.705759 0.609232 2.57299L2.50006 4.20846ZM17.2042 4.53146L16.3841 6.89313C19.1305 7.84681 22.2152 9.15452 25.5793 10.8097L26.683 8.56651L27.7866 6.32333C24.2796 4.59781 21.0034 3.20426 18.0243 2.1698L17.2042 4.53146ZM35.7237 13.4648L34.457 15.6202C37.2133 17.24 40.0819 19.0351 43.0382 20.9994L44.4218 18.9172L45.8054 16.835C42.7773 14.8229 39.8307 12.9787 36.9903 11.3095L35.7237 13.4648ZM52.8575 24.8142L51.3794 26.8305C54.0359 28.7779 56.7389 30.8448 59.4727 33.0271L61.0324 31.0733L62.5921 29.1195C59.8056 26.8951 57.0482 24.7865 54.3356 22.798L52.8575 24.8142ZM68.9527 37.6499L67.3195 39.5427C69.8441 41.7212 72.3815 43.9913 74.92 46.3499L76.6217 44.5185L78.3234 42.687C75.7398 40.2865 73.1567 37.9755 70.5859 35.7572L68.9527 37.6499ZM84.0374 51.6631L82.2706 53.4318C84.6474 55.8058 87.0148 58.2549 89.3632 60.7766L91.1927 59.0728L93.0222 57.369C90.632 54.8025 88.2228 52.3101 85.8041 49.8943L84.0374 51.6631ZM98.0759 66.7398L96.1853 68.3754C98.3905 70.9245 100.57 73.5375 102.714 76.2121L104.664 74.6484L106.615 73.0847C104.431 70.3602 102.212 67.6992 99.9666 65.1041L98.0759 66.7398ZM110.937 82.788L108.928 84.2753C110.936 86.9887 112.903 89.7579 114.822 92.5808L116.89 91.1753L118.957 89.7699C117 86.8902 114.993 84.0664 112.946 81.3007L110.937 82.788ZM122.497 99.8046L120.373 101.122C122.155 103.997 123.884 106.921 125.55 109.892L127.731 108.669L129.911 107.446C128.208 104.409 126.442 101.422 124.622 98.487L122.497 99.8046ZM132.561 117.762L130.326 118.883C131.841 121.903 133.289 124.966 134.663 128.071L136.95 127.06L139.236 126.048C137.828 122.867 136.346 119.73 134.796 116.641L132.561 117.762ZM140.872 136.566L138.538 137.46C139.745 140.613 140.873 143.805 141.916 147.035L144.295 146.267L146.674 145.499C145.603 142.182 144.445 138.906 143.207 135.672L140.872 136.566ZM147.183 156.145L144.765 156.779C145.62 160.04 146.384 163.336 147.053 166.665L149.504 166.173L151.955 165.681C151.267 162.255 150.48 158.864 149.602 155.511L147.183 156.145ZM151.224 176.302L148.747 176.646C149.209 179.971 149.572 183.327 149.83 186.712L152.323 186.521L154.816 186.331C154.549 182.842 154.175 179.384 153.7 175.958L151.224 176.302ZM152.782 196.803L150.282 196.835C150.326 200.192 150.264 203.574 150.091 206.981L152.588 207.108L155.085 207.235C155.263 203.721 155.327 200.232 155.282 196.77L152.782 196.803ZM151.743 217.326L149.26 217.041C148.88 220.356 148.392 223.693 147.792 227.05L150.252 227.49L152.713 227.931C153.332 224.47 153.835 221.029 154.227 217.611L151.743 217.326ZM148.121 237.59L145.692 236.999C144.905 240.23 144.012 243.48 143.007 246.746L145.396 247.481L147.786 248.216C148.82 244.855 149.74 241.51 150.55 238.181L148.121 237.59ZM142.1 257.191L139.756 256.321C138.589 259.463 137.316 262.62 135.935 265.789L138.226 266.788L140.518 267.787C141.936 264.534 143.243 261.292 144.443 258.062L142.1 257.191ZM133.898 276.052L131.661 274.936C130.897 276.466 130.108 277.999 129.292 279.535L131.5 280.708L133.708 281.881C134.543 280.307 135.352 278.737 136.135 277.168L133.898 276.052Z" fill="#4C412C"/>
</svg>
